<?xml version="1.0" encoding="UTF-8"?><svg id="_イヤー_1" xmlns="http://www.w3.org/2000/svg" viewBox="0 0 45.89 46.67"><defs><style>.cls-1{fill:#f2f2f2;}</style></defs><path class="cls-1" d="M32.7,0H13.19C5.9,0,0,5.9,0,13.19v20.29c0,7.28,5.9,13.19,13.19,13.19h19.51c7.28,0,13.19-5.9,13.19-13.19V13.19c0-7.28-5.9-13.19-13.19-13.19ZM4.68,13.19c0-4.69,3.82-8.51,8.51-8.51h19.51c4.69,0,8.51,3.82,8.51,8.51v20.29c0,4.69-3.82,8.51-8.51,8.51H13.19c-4.69,0-8.51-3.82-8.51-8.51V13.19Z"/><path class="cls-1" d="M22.94,35.35c6.63,0,12.02-5.39,12.02-12.02s-5.39-12.02-12.02-12.02-12.02,5.39-12.02,12.02,5.39,12.02,12.02,12.02Zm0-20.29c4.56,0,8.27,3.71,8.27,8.27s-3.71,8.27-8.27,8.27-8.27-3.71-8.27-8.27,3.71-8.27,8.27-8.27Z"/><circle class="cls-1" cx="35.31" cy="10.96" r="2.69"/></svg>