<?xml version="1.0" encoding="UTF-8"?><svg id="_イヤー_1" xmlns="http://www.w3.org/2000/svg" viewBox="0 0 48.14 39.49"><defs><style>.cls-1{fill:#f2f2f2;}</style></defs><path class="cls-1" d="M32.94,0c-5.76,0-10.44,4.68-10.44,10.44,0,.35,.09,.68,.12,1.02-7.12-.68-13.41-4.11-17.68-9.35-.2-.25-.51-.39-.83-.36-.32,.02-.61,.21-.76,.48-.9,1.55-1.41,3.32-1.41,5.23,0,2.31,.83,4.43,2.11,6.17-.25-.11-.52-.17-.75-.3-.3-.16-.65-.15-.94,.02-.29,.17-.47,.48-.47,.82v.12c0,3.54,1.83,6.62,4.54,8.51-.03,0-.06,0-.09,0-.33-.06-.67,.06-.89,.31s-.29,.6-.2,.92c1.08,3.34,3.82,5.89,7.22,6.83-2.71,1.61-5.85,2.56-9.23,2.56-.73,0-1.44-.04-2.14-.12-.45-.06-.88,.2-1.03,.63-.15,.43,.02,.91,.4,1.14,4.34,2.79,9.5,4.42,15.04,4.42,8.98,0,16.03-3.75,20.75-9.11s7.19-12.32,7.19-18.83c0-.27-.02-.54-.03-.81,1.76-1.35,3.34-2.93,4.57-4.78,.24-.36,.22-.83-.06-1.17-.28-.33-.75-.43-1.14-.25-.5,.22-1.08,.24-1.59,.42,.68-.91,1.27-1.9,1.62-3.01,.12-.38-.01-.8-.32-1.05-.31-.24-.75-.27-1.09-.07-1.64,.97-3.46,1.66-5.38,2.08-1.86-1.74-4.32-2.92-7.07-2.92Zm0,1.92c2.45,0,4.67,1.05,6.23,2.71,.23,.24,.58,.34,.9,.27,1.26-.25,2.45-.61,3.61-1.08-.67,.9-1.5,1.67-2.47,2.26-.44,.21-.65,.72-.48,1.18,.16,.46,.64,.73,1.12,.62,.96-.12,1.82-.51,2.74-.75-.82,.89-1.73,1.7-2.71,2.41-.27,.2-.41,.51-.39,.84,.02,.39,.03,.78,.03,1.17,0,6.01-2.31,12.54-6.71,17.53s-10.86,8.48-19.31,8.48c-3.84,0-7.46-.85-10.74-2.35,4.06-.31,7.8-1.75,10.83-4.12,.32-.25,.44-.67,.31-1.06s-.48-.65-.88-.66c-3.17-.06-5.83-1.9-7.25-4.51h.15c.95,0,1.89-.12,2.77-.36,.42-.12,.71-.52,.7-.95s-.33-.82-.76-.91c-3.42-.69-5.99-3.48-6.59-6.95,.97,.33,1.96,.6,3.04,.63,.44,.03,.84-.25,.97-.67s-.03-.88-.4-1.11c-2.29-1.53-3.79-4.14-3.79-7.1,0-1.1,.29-2.11,.66-3.07,4.81,5.28,11.55,8.79,19.16,9.17,.3,.02,.59-.11,.79-.34,.2-.23,.27-.54,.2-.83-.15-.62-.24-1.29-.24-1.95,0-4.71,3.8-8.51,8.51-8.51Z"/></svg>