<?xml version="1.0" encoding="UTF-8"?><svg id="_イヤー_2" xmlns="http://www.w3.org/2000/svg" viewBox="0 0 984.59 199.56"><defs><style>.cls-1{fill:#cdbe78;}</style></defs><g id="_イヤー_1-2"><g><path class="cls-1" d="M18.4,124.83c0-1.7,.37-4.08,1.11-7.15,.74-3.07,1.74-5.45,2.99-7.15,3.18-4.51,6.1-8.65,8.76-12.42,2.66-3.77,5.03-7.02,7.1-9.76,2.07-2.73,4.14-5.17,6.21-7.32,12.64-13.67,21.69-23.89,27.16-30.65,5.47-6.76,8.2-11.47,8.2-14.14,0-1.77-.81-3.16-2.44-4.16-1.63-1-3.77-1.5-6.43-1.5-5.47,0-12.34,1.94-20.62,5.82-8.28,3.88-17.94,8.92-28.99,15.13-11.05,6.21-17.2,9.31-18.46,9.31-2,0-2.99-1.44-2.99-4.32,0-2.44,.78-5.91,2.33-10.42,1.18-4.88,2.14-8.66,2.88-11.36,.74-2.7,1.98-5.12,3.71-7.26,1.74-2.14,4.62-4.47,8.65-6.98,4.03-2.51,10.22-5.95,18.57-10.31l1.11,4.1c6.95-2.81,13.51-4.95,19.68-6.43,6.17-1.48,11.44-2.22,15.8-2.22,8.57,0,14.65,1.46,18.24,4.38,3.58,2.92,5.38,9.26,5.38,19.01,0,5.32-.78,9.76-2.33,13.3-1.55,3.55-4.58,8.5-9.09,14.86-10.27,14.93-18,25.28-23.17,31.04-15,17.15-22.51,27.16-22.51,30.04,0,1.63,1.07,2.44,3.21,2.44,1.77,0,4.29-1.26,7.54-3.77,3.25-2.51,7.17-6.13,11.75-10.87,4.58-4.73,10.94-11.49,19.07-20.29,8.65-9.31,15.95-17.53,21.9-24.67,5.95-7.13,10.85-13.23,14.69-18.29,3.84-5.06,5.88-7.78,6.1-8.15,3.99-4.88,8.11-8.89,12.36-12.03,4.25-3.14,6.97-4.71,8.15-4.71,.89,0,1.92,.81,3.1,2.44,1.18,1.63,2.2,3.55,3.05,5.76,.85,2.22,1.27,3.92,1.27,5.1,0,.37-.89,2.16-2.66,5.38-1.77,3.22-3.7,6.54-5.77,9.98-2.07,3.44-5.4,8.7-9.98,15.8-10.05,15.6-17.74,28.7-23.06,39.3-5.32,10.61-7.98,17.57-7.98,20.9,0,1.18,.42,2.27,1.27,3.27,.85,1,1.72,1.5,2.61,1.5,1.18,0,3.33-.94,6.43-2.83s6.54-4.6,10.31-8.15c4.95-4.73,9.46-9.65,13.53-14.75,4.06-5.1,8.09-10.79,12.08-17.07,3.99-6.28,7.54-12.23,10.64-17.85,3.1-5.62,6.24-11.53,9.42-17.74l-1.88-5.65c-.3-.89-.44-2.03-.44-3.44,0-1.11,2.18-4.71,6.54-10.81,4.36-6.1,7.24-9.15,8.65-9.15,1.55,0,2.86,1.13,3.94,3.38,1.07,2.26,1.61,4.53,1.61,6.82,0,2.51-1.13,7.52-3.38,15.02-2.26,7.5-5.77,16.57-10.53,27.22-4.77,10.64-10.66,21.47-17.68,32.48-6.06,9.61-12.55,17.83-19.46,24.67-6.91,6.84-13.14,11.92-18.68,15.24-5.54,3.33-9.65,4.99-12.31,4.99-3.03,0-6.21-1.33-9.53-3.99-2.74-2.37-4.68-4.49-5.82-6.38-1.15-1.88-1.9-3.94-2.27-6.15-.37-2.22-.55-4.8-.55-7.76,0-6.28,1.74-13.64,5.21-22.06,3.47-8.43,8.65-18.92,15.52-31.49-21.51,26.16-38.16,45.2-49.94,57.1-11.79,11.9-20.42,17.85-25.89,17.85-3.62,0-6.69-2.16-9.2-6.49-2.51-4.32-3.77-9.51-3.77-15.58Z"/><path class="cls-1" d="M181.93,88.03c11.23-10.2,22.13-17.78,32.71-22.73,10.57-4.95,18.74-7.43,24.5-7.43,1.55,0,2.99,.65,4.32,1.94,1.33,1.29,2.38,2.79,3.16,4.49,.78,1.7,1.16,2.96,1.16,3.77,0,1.33-.52,2.31-1.55,2.94-1.04,.63-2.85,1.39-5.43,2.27,.52,1.18,1.18,2.7,2,4.54,.81,1.85,1.44,3.35,1.88,4.49,.44,1.15,.67,2.16,.67,3.05,0,1.77-1.79,5.08-5.38,9.92-3.59,4.84-6.1,8.41-7.54,10.7-1.44,2.29-2.16,5.1-2.16,8.43,0,5.47,2.51,8.2,7.54,8.2s13.27-4.84,24.28-14.52v6.76c-18.7,20.77-32.08,31.15-40.13,31.15-2.88,0-4.93-.94-6.15-2.83-1.22-1.88-1.83-4.67-1.83-8.37,0-5.84,2.11-14.3,6.32-25.39-10.79,11.97-18.81,20.49-24.06,25.55-5.25,5.06-9.57,7.59-12.97,7.59-1.63,0-3.66-1.4-6.1-4.21-2.44-2.81-4.6-6.45-6.49-10.92-1.88-4.47-2.83-9.11-2.83-13.91,0-3.47,.33-6.37,1-8.7,.67-2.33,1.96-4.71,3.88-7.15,1.92-2.44,4.99-5.65,9.2-9.64Zm53.1-12.2c-19.22,8.8-32.91,16.26-41.08,22.39-8.17,6.14-12.25,12.46-12.25,18.96,0,2.37,.41,4.31,1.22,5.82,.81,1.52,1.92,2.27,3.33,2.27,.81,0,2.25-.52,4.32-1.55,7.76-4.58,14.86-10.55,21.29-17.91,6.43-7.35,14.15-17.35,23.17-29.99Z"/><path class="cls-1" d="M314.08,107.87v8.09c-7.17,9.24-13.86,16.21-20.07,20.9-6.21,4.69-11.49,7.04-15.85,7.04-6.06,0-10.57-3.18-13.53-9.53-2.96-6.36-4.43-13.3-4.43-20.84,0-2.88,.29-5.63,.89-8.26,.59-2.62,1.29-4.79,2.11-6.49,.81-1.7,2.33-4.36,4.55-7.98,10.49-16.33,20.1-24.5,28.82-24.5,4.51,0,6.76,1.74,6.76,5.21,0,2.37-1.46,6.06-4.38,11.09-2.92,5.03-5.53,8.61-7.82,10.75-6.43,6.21-10.63,10.53-12.58,12.97-1.96,2.44-2.94,5.21-2.94,8.32,0,2.66,1,4.88,2.99,6.65,2,1.77,4.58,2.66,7.76,2.66,3.47,0,7.3-1.28,11.47-3.83,4.17-2.55,9.59-6.63,16.24-12.25Zm-7.54-49.56c-1.85,0-3.6-.7-5.27-2.11-1.66-1.4-2.49-3.18-2.49-5.32,0-3.25,1.55-6.87,4.66-10.87,3.1-3.99,6.32-5.99,9.65-5.99,2.22,0,4.06,.68,5.54,2.05,1.48,1.37,2.22,3.35,2.22,5.93,0,3.18-1.52,6.69-4.55,10.53-3.03,3.84-6.28,5.76-9.76,5.76Z"/><path class="cls-1" d="M351.99,50.33h4.77c3.92-7.02,7.46-11.99,10.64-14.91,3.18-2.92,6.8-4.38,10.86-4.38s6.1,.93,6.1,2.77c0,.89-1.59,3.29-4.77,7.21-3.18,3.92-5.58,7.21-7.21,9.87,2.51,.3,4.75,.55,6.71,.78,1.96,.22,3.49,.41,4.6,.55-4.21,7.83-9.5,15.85-15.85,24.06-2.07-.15-3.81-.28-5.21-.39-1.4-.11-2.83-.22-4.27-.33-1.44-.11-3.2-.24-5.27-.39-3.99,6.43-7.34,12.18-10.03,17.24-2.7,5.06-4.77,9.7-6.21,13.91s-2.16,8.2-2.16,11.97c0,5.1,2.03,7.65,6.1,7.65,2.81,0,6.49-1.5,11.03-4.49,4.55-2.99,10.62-7.59,18.24-13.8v7.43c-19.96,21.66-34.7,32.48-44.23,32.48-3.33,0-6.01-1.29-8.04-3.88-2.03-2.59-3.05-5.91-3.05-9.98,0-2.73,.57-5.99,1.72-9.76,1.15-3.77,3.2-9.46,6.15-17.07-1.04,.89-2.01,1.76-2.94,2.61-.92,.85-1.77,1.63-2.55,2.33-.78,.7-1.61,1.44-2.49,2.22-.89,.78-1.77,1.57-2.66,2.38v-7.65c7.76-6.5,17.15-17.92,28.16-34.26-1.11-.07-2.14-.13-3.1-.17-.96-.04-2.11-.06-3.44-.06-4.36,0-7.61,.3-9.76,.89-.89,.22-1.72,.46-2.49,.72-.78,.26-1.31,.39-1.61,.39s-.44-.22-.44-.67c0-2.44,1.51-6.1,4.55-10.98,2.44-4.14,4.75-7.21,6.93-9.2,2.18-2,4.84-3.34,7.98-4.05,3.14-.7,7.56-1.05,13.25-1.05Z"/><path class="cls-1" d="M495.34,107.87v7.65c-4.44,4.43-7.8,7.65-10.09,9.65-2.29,2-5.43,4.03-9.42,6.1,0,6.73-.33,12.45-1,17.18-.67,4.73-2.14,9.7-4.44,14.91-2.29,5.21-5.84,10.92-10.64,17.13-4.73,6.13-9.39,10.84-13.97,14.13-4.58,3.29-8.17,4.93-10.75,4.93-2.88,0-5.54-2.37-7.98-7.1-2.44-4.73-3.66-10.61-3.66-17.63s1.15-13.82,3.44-21.29c2.29-7.47,5.84-17.11,10.64-28.94-3.62-4.73-5.43-9.42-5.43-14.08,0-3.77,.96-6.65,2.88-8.65,1.92-2,4.66-3.81,8.2-5.43,2.59-4.06,5.04-7.52,7.37-10.37,2.33-2.84,5.49-6.63,9.48-11.36,7.69-18.92,16.7-37.4,27.05-55.43,2.88-5.03,4.95-8.41,6.21-10.14,1.26-1.74,2.59-2.61,3.99-2.61,1.26,0,2.36,.93,3.33,2.77,.96,1.85,1.44,4.25,1.44,7.21,0,3.62-.39,6.95-1.16,9.98-.78,3.03-1.88,6.08-3.32,9.15-1.44,3.07-3.44,6.75-5.99,11.03-2.55,4.29-4.12,6.95-4.71,7.98-3.7,6.5-7.87,13.71-12.53,21.62-4.66,7.91-8.33,14.15-11.03,18.74-2.7,4.58-4.64,8.02-5.82,10.31,3.99,3.47,7.15,6.47,9.48,8.98,2.33,2.51,4.34,5.51,6.04,8.98,2.51-.96,4.8-2.11,6.87-3.44,2.07-1.33,4.51-3.16,7.32-5.49s5.54-4.49,8.21-6.49Zm-33.15,29.71l-.22-2.33c-2.07,.22-3.73,.28-4.99,.17-1.26-.11-2.72-.42-4.38-.94-1.66-.52-2.96-1-3.88-1.44-.92-.44-1.94-.89-3.05-1.33-5.62,13.75-8.43,25.17-8.43,34.26,0,4.51,.68,8.35,2.05,11.53,1.37,3.18,2.97,4.77,4.82,4.77s4.34-1.7,7.26-5.1c2.92-3.4,5.45-8.43,7.59-15.08,2.14-6.65,3.22-14.82,3.22-24.5Z"/><path class="cls-1" d="M566.41,107.65v7.43c-4.88,4.43-8.8,7.39-11.75,8.87-2.96,1.48-7.21,2.07-12.75,1.77-9.61,11.38-18.07,17.07-25.39,17.07-4.14,0-7.91-1.37-11.31-4.1-3.4-2.73-6.12-6.47-8.15-11.2-2.03-4.73-3.05-10.01-3.05-15.85,0-4.73,1.57-9.98,4.71-15.74,3.14-5.76,7.21-11.14,12.2-16.13,4.99-4.99,10.33-9.02,16.02-12.08,5.69-3.07,10.98-4.6,15.85-4.6,3.47,0,6.21,.54,8.2,1.61,2,1.07,2.99,2.57,2.99,4.49,0,1.48-.85,3.18-2.55,5.1,2.81,.59,4.73,1.57,5.76,2.94,1.03,1.37,1.55,3.86,1.55,7.48s-.83,8.02-2.49,13.41c-1.66,5.4-3.94,10.46-6.82,15.19l2,2h1.66c1.26,0,2.49-.31,3.71-.94,1.22-.63,2.31-1.29,3.27-2,.96-.7,3.07-2.27,6.32-4.71Zm-22.84-29.16c-6.14,3.7-11.38,7.04-15.74,10.03-4.36,2.99-8.06,6.03-11.09,9.09-3.03,3.07-5.06,6.15-6.1,9.26-1.85,8.28-2.77,12.75-2.77,13.41,0,4.88,3.4,7.32,10.2,7.32,3.18,0,8.5-2.73,15.96-8.2-1.26-3.47-1.88-6.8-1.88-9.98,0-4.66,.96-9.4,2.88-14.25,1.92-4.84,4.77-10.4,8.54-16.69Z"/><path class="cls-1" d="M565.08,116.41v-7.21c3.99-4.73,7.02-8.76,9.09-12.08-2.37-.81-4.08-1.81-5.16-2.99-1.07-1.18-1.61-2.96-1.61-5.32,0-2.66,1.11-6.02,3.33-10.09,2.22-4.06,4.95-7.87,8.2-11.42,3.25-3.55,6.21-5.84,8.87-6.87,1.03-.52,2.03-.78,2.99-.78,1.48,0,2.22,.7,2.22,2.11,0,1.26-1.15,3.81-3.44,7.65,15.22-2.36,24.83-3.55,28.83-3.55,1.55,0,2.62,.15,3.21,.44,1.26,.67,2.29,2.22,3.1,4.66,.81,2.44,1.22,4.88,1.22,7.32,0,1.55-.68,3.23-2.05,5.04-1.37,1.81-3.71,4.45-7.04,7.93-3.92,4.21-7.21,8.8-9.87,13.75-2.66,4.95-3.99,8.69-3.99,11.2,0,3.47,2.14,5.21,6.43,5.21,4.51,0,12.34-4.58,23.5-13.75v7.43c-6.14,6.43-11.2,11.49-15.19,15.19-3.99,3.7-7.69,6.63-11.09,8.81-3.4,2.18-6.43,3.27-9.09,3.27-3.1,0-5.69-1.42-7.76-4.27-2.07-2.84-3.1-6.96-3.1-12.36,0-3.18,.81-6.8,2.44-10.86,1.62-4.06,4.01-8.48,7.15-13.25,3.14-4.77,6.67-9.51,10.59-14.25-2.07,.44-4.4,.91-6.98,1.39-2.59,.48-5.32,.98-8.2,1.5-2.88,.52-5.1,.92-6.65,1.22-4.58,9.17-11.24,17.48-19.96,24.94Z"/><path class="cls-1" d="M746.89,123.06c10.2-9.02,18.96-16.87,26.28-23.56,7.32-6.69,13.06-11.95,17.24-15.8,4.17-3.84,7.85-7.09,11.03-9.76,3.18-2.66,5.21-3.99,6.1-3.99,1.7-.07,3.33,1.68,4.88,5.27,1.55,3.59,2.33,6.45,2.33,8.59,0,1.4-2.35,4.71-7.04,9.92-4.69,5.21-8.2,9.37-10.53,12.47-2.33,3.1-3.49,6.36-3.49,9.76,0,2,.67,3.6,2,4.82,1.33,1.22,2.92,1.83,4.77,1.83,2.14,0,4.71-1.11,7.71-3.33,2.99-2.22,7.71-6.17,14.13-11.86v7.87c-6.43,6.06-12.27,11.29-17.52,15.69-5.25,4.4-9.81,7.69-13.69,9.87-3.88,2.18-7.11,3.27-9.7,3.27-2.29,0-4.21-.87-5.77-2.61-1.55-1.74-2.33-3.9-2.33-6.49s.44-5.06,1.33-7.65c.89-2.59,2.25-5.65,4.1-9.2,1.85-3.55,4.29-7.82,7.32-12.8,3.03-4.99,5.8-9.55,8.31-13.69-7.54,6.14-14.23,12.05-20.07,17.74-5.84,5.69-10.61,10.66-14.3,14.91-3.7,4.25-6.62,7.59-8.76,10.03-4.14,4.58-7.98,6.87-11.53,6.87-3.84,0-5.76-2.73-5.76-8.2,0-2.22,1.44-6.19,4.32-11.92,2.88-5.73,6.99-13.03,12.31-21.9,.44-.59,.67-1.51,.67-2.77,0-1.48-.74-2.22-2.22-2.22-1.63,0-3.97,1.54-7.04,4.6s-9,9.48-17.79,19.24c-2.44,2.74-5.19,6.3-8.26,10.7-3.07,4.4-5.27,7.34-6.6,8.81-1.33,1.48-2.66,2.22-3.99,2.22-2.66,0-5.14-2.36-7.43-7.1-2.29-4.73-3.44-10.24-3.44-16.52,0-4.58,.76-8.54,2.27-11.86,1.51-3.33,3.86-7.46,7.04-12.42,4.95-7.17,9-12.29,12.14-15.35,3.14-3.07,6.45-4.6,9.92-4.6,2.14,0,3.95,.43,5.43,1.28,1.48,.85,2.22,2.01,2.22,3.49,0,1.55-1.35,4.1-4.05,7.65-2.7,3.55-6.12,7.21-10.25,10.98-2.22,2.14-4.32,4.79-6.32,7.93-2,3.14-2.99,5.42-2.99,6.82,0,2,.78,2.99,2.33,2.99,1.26,0,4.43-2.59,9.53-7.76,5.1-5.17,10.7-10.81,16.8-16.91s11.75-11.16,16.96-15.19c5.21-4.03,9.63-6.04,13.25-6.04,2.22,0,4.05,.83,5.49,2.49s2.16,3.71,2.16,6.15c0,1.63-1.11,4.56-3.33,8.81-2.22,4.25-5.45,9.5-9.7,15.74-4.25,6.25-9.74,13.8-16.46,22.67Z"/><path class="cls-1" d="M839.24,111.86v2.77c0,4.36,1.07,7.76,3.22,10.2,2.14,2.44,4.95,3.66,8.43,3.66s7.37-.85,11.25-2.55c3.88-1.7,7.74-3.95,11.59-6.76,3.84-2.81,8.54-6.58,14.08-11.31v6.76c-8.35,10.05-16.19,17.76-23.5,23.12-7.32,5.36-14.75,8.04-22.28,8.04-6.58,0-11.79-2.55-15.63-7.65-3.84-5.1-5.77-12.08-5.77-20.95,0-7.76,1.81-14.8,5.43-21.12,3.62-6.32,9.53-12.99,17.74-20.01,5.62-4.8,11.2-8.43,16.74-10.87,5.54-2.44,10.49-3.66,14.86-3.66,3.47,0,6.23,.79,8.26,2.38,2.03,1.59,3.05,3.97,3.05,7.15,0,4.66-1.74,9.3-5.21,13.91-3.47,4.62-8.78,9.2-15.91,13.75-7.13,4.54-15.91,8.92-26.33,13.14Zm1.11-7.21c6.65-2.59,12.34-5.8,17.07-9.64,4.73-3.84,8.22-7.52,10.48-11.03,2.25-3.51,3.38-6.08,3.38-7.71s-.78-2.55-2.33-2.55c-1.33,0-3.49,.85-6.49,2.55-2.99,1.7-6.02,3.92-9.09,6.65-3.07,2.74-5.82,5.95-8.26,9.65-2.44,3.7-4.03,7.72-4.77,12.08Z"/><path class="cls-1" d="M910.31,141.91c-2.22,0-4.4-.98-6.54-2.94-2.14-1.96-3.21-4.71-3.21-8.26,0-4.66,1.2-9.9,3.6-15.74,2.4-5.84,4.9-8.76,7.48-8.76,1.62,0,3.27,.57,4.93,1.72,1.66,1.15,3.08,2.75,4.27,4.82,1.18,2.07,1.77,4.36,1.77,6.87,0,4.07-1.37,8.8-4.1,14.19-2.74,5.4-5.47,8.09-8.2,8.09ZM965.07,.67c1.55-.44,2.92-.67,4.1-.67,2.44,0,5.12,.78,8.04,2.33,2.92,1.55,5.38,3.73,7.37,6.54-3.47,5.1-9.11,13.45-16.91,25.06-7.8,11.6-13.62,20.29-17.46,26.05-3.84,5.76-7.8,11.75-11.86,17.96-4.07,6.21-7.13,11.01-9.2,14.41,1.4,.3,2.11,1.15,2.11,2.55,0,.89-.87,2.4-2.61,4.55-1.74,2.14-3.31,3.21-4.71,3.21-1.63,0-3.7-1.48-6.21-4.43-2.51-2.96-3.77-5.5-3.77-7.65,0-1.03,.57-2.81,1.72-5.32,1.14-2.51,3.16-6.3,6.04-11.36,2.88-5.06,6.12-10.66,9.7-16.8,3.58-6.13,7.96-13.67,13.14-22.62,10.12-17.37,16.96-28.64,20.51-33.81Z"/></g></g></svg>